<svg data-v-fde0c5aa="" xmlns="http://www.w3.org/2000/svg" viewBox="0 0 300 300" class="iconLeft"><!----><defs data-v-fde0c5aa=""><!----></defs><rect data-v-fde0c5aa="" fill="transparent" x="0" y="0" width="300px" height="300px" class="logo-background-square"></rect><defs data-v-fde0c5aa=""><!----></defs><g data-v-fde0c5aa="" id="7d4222a0-5b19-43bd-8d2b-29915ef91feb" fill="#000000" transform="matrix(2.8551997035201295,0,0,2.8551997035201295,90.38136001274592,136.12109981488825)"><path d="M8.39 1.40L8.39 1.40Q8.41 1.39 8.47 1.21Q8.53 1.04 8.56 0.83Q8.60 0.62 8.60 0.42Q8.61 0.22 8.54 0.15L8.54 0.15Q8.22 0.13 7.73 0.13L7.73 0.13Q7.25 0.13 6.74 0.14Q6.23 0.15 5.74 0.18Q5.25 0.21 4.91 0.22L4.91 0.22Q4.73 0.24 4.31 0.25Q3.89 0.25 3.43 0.28Q2.97 0.31 2.58 0.37Q2.18 0.43 2.07 0.55L2.07 0.55Q1.97 0.97 1.93 1.25Q1.89 1.54 2.07 1.72L2.07 1.72Q2.31 1.71 2.94 1.69Q3.57 1.68 4.34 1.65L4.34 1.65Q4.23 2.03 4.05 2.70Q3.88 3.36 3.67 4.15Q3.46 4.94 3.25 5.80Q3.05 6.65 2.91 7.40Q2.76 8.15 2.69 8.72Q2.62 9.28 2.69 9.52L2.69 9.52Q2.72 9.59 2.89 9.69Q3.07 9.79 3.30 9.70L3.30 9.70Q3.33 9.70 3.44 9.67Q3.56 9.65 3.68 9.62Q3.81 9.59 3.91 9.56Q4.02 9.52 4.06 9.51L4.06 9.51Q4.14 9.34 4.17 9.15Q4.19 8.96 4.26 8.78L4.26 8.78Q4.31 8.60 4.33 8.41Q4.35 8.22 4.38 8.04L4.38 8.04Q4.49 7.49 4.59 6.94Q4.69 6.40 4.80 5.85L4.80 5.85Q4.90 5.42 5.03 4.87Q5.15 4.31 5.29 3.74Q5.42 3.16 5.55 2.61Q5.68 2.06 5.80 1.60L5.80 1.60Q6.26 1.58 6.68 1.55Q7.10 1.53 7.44 1.51Q7.78 1.48 8.03 1.46Q8.27 1.43 8.39 1.40ZM11.55 4.28L11.55 4.28Q11.27 3.68 10.70 3.50Q10.14 3.32 9.49 3.47Q8.85 3.63 8.22 4.07Q7.60 4.52 7.21 5.18L7.21 5.18Q7.22 5.18 7.29 5.25Q7.35 5.32 7.43 5.40Q7.50 5.47 7.57 5.54Q7.63 5.60 7.66 5.60L7.66 5.60Q7.88 5.39 8.11 5.19Q8.33 4.98 8.60 4.83L8.60 4.83Q8.83 4.69 9.14 4.61Q9.45 4.52 9.73 4.53Q10.01 4.54 10.21 4.67Q10.42 4.80 10.44 5.11L10.44 5.11Q10.46 5.33 10.40 5.57Q10.35 5.81 10.32 6.03L10.32 6.03Q9.98 6.09 9.63 6.09L9.63 6.09Q9.30 6.09 8.96 6.15Q8.62 6.20 8.22 6.34Q7.81 6.47 7.43 6.68Q7.06 6.89 6.78 7.18Q6.50 7.48 6.41 7.85L6.41 7.85L6.37 8.05Q6.40 8.05 6.36 8.09L6.36 8.09Q6.24 8.71 6.61 9.09L6.61 9.09Q6.90 9.41 7.32 9.49Q7.73 9.58 8.18 9.58L8.18 9.58Q8.18 9.56 8.20 9.56L8.20 9.56Q8.40 9.56 8.60 9.52Q8.81 9.48 9.00 9.44L9.00 9.44Q9.17 9.39 9.27 9.37Q9.37 9.34 9.44 9.31Q9.52 9.28 9.58 9.26Q9.65 9.24 9.73 9.21L9.73 9.21Q9.72 9.38 9.82 9.46Q9.93 9.53 9.97 9.69L9.97 9.69Q10.16 9.69 10.36 9.65Q10.56 9.62 10.75 9.60L10.75 9.60Q10.78 9.41 10.88 9.03Q10.98 8.65 11.05 8.36L11.05 8.36L11.07 8.34Q11.17 7.92 11.33 7.37Q11.48 6.82 11.59 6.25Q11.69 5.68 11.70 5.17Q11.72 4.65 11.55 4.28ZM10.19 6.99L10.19 6.99Q10.15 7.22 10.08 7.52Q10.01 7.81 9.93 8.05L9.93 8.05Q9.88 8.16 9.53 8.26Q9.18 8.36 8.77 8.39Q8.36 8.41 8.01 8.35Q7.66 8.29 7.63 8.09L7.63 8.09Q7.63 8.02 7.64 7.97Q7.64 7.92 7.66 7.85L7.66 7.85Q7.73 7.66 7.96 7.49Q8.19 7.32 8.37 7.25L8.37 7.25Q8.41 7.22 8.46 7.22Q8.50 7.21 8.53 7.20L8.53 7.20Q8.92 7.07 9.20 7.00Q9.48 6.93 9.86 6.93L9.86 6.93Q9.93 6.96 10.04 6.95Q10.15 6.94 10.19 6.99ZM17.21 6.80L17.21 6.80Q17.09 6.71 16.89 6.61Q16.69 6.51 16.42 6.42Q16.16 6.33 15.85 6.27Q15.54 6.20 15.23 6.16L15.23 6.16Q15.11 6.15 14.97 6.09Q14.84 6.03 14.73 5.95Q14.62 5.87 14.55 5.75Q14.49 5.63 14.50 5.49L14.50 5.49L14.52 5.46Q14.74 5.14 15.06 4.96Q15.37 4.77 15.72 4.69Q16.07 4.61 16.43 4.60Q16.79 4.59 17.08 4.62L17.08 4.62Q17.23 4.63 17.37 4.66Q17.51 4.69 17.65 4.68L17.65 4.68Q17.68 4.68 17.71 4.61Q17.74 4.54 17.76 4.46Q17.78 4.38 17.81 4.31Q17.84 4.24 17.88 4.21L17.88 4.21Q17.93 4.06 18.03 3.96Q18.13 3.85 18.10 3.70L18.10 3.70Q18.05 3.65 17.93 3.61Q17.82 3.57 17.75 3.54L17.75 3.54Q17.44 3.44 17.02 3.44Q16.60 3.43 16.14 3.52Q15.67 3.61 15.20 3.78Q14.73 3.95 14.34 4.20Q13.94 4.45 13.66 4.78Q13.38 5.11 13.30 5.52L13.30 5.52Q13.20 5.94 13.29 6.20Q13.37 6.47 13.57 6.64Q13.76 6.82 14.04 6.92Q14.31 7.01 14.61 7.08Q14.91 7.15 15.20 7.22Q15.50 7.29 15.74 7.41L15.74 7.41Q15.85 7.46 15.98 7.57Q16.11 7.69 16.09 7.85L16.09 7.85Q16.02 8.23 15.46 8.46Q14.90 8.69 14.03 8.67L14.03 8.67Q13.89 8.67 13.73 8.61Q13.57 8.55 13.41 8.46Q13.24 8.37 13.12 8.26Q12.99 8.15 12.91 8.05L12.91 8.05L12.74 7.88Q12.46 8.11 12.31 8.48Q12.17 8.85 12.04 9.11L12.04 9.11Q12.40 9.35 12.80 9.51Q13.20 9.67 13.69 9.70L13.69 9.70Q14.00 9.72 14.40 9.67Q14.80 9.63 15.21 9.54Q15.62 9.45 16.02 9.28Q16.42 9.11 16.74 8.88Q17.05 8.64 17.25 8.31Q17.44 7.98 17.44 7.56L17.44 7.56Q17.44 7.29 17.42 7.13Q17.40 6.97 17.21 6.80ZM23.04 4.80L23.04 4.80Q23.07 4.79 23.12 4.64Q23.17 4.49 23.21 4.31Q23.24 4.13 23.26 3.96Q23.28 3.79 23.24 3.74L23.24 3.74Q22.88 3.68 22.36 3.68L22.36 3.68Q21.84 3.68 21.39 3.71L21.39 3.71Q21.45 3.51 21.50 3.33Q21.55 3.14 21.60 2.94L21.60 2.94Q21.70 2.58 21.76 2.30Q21.83 2.02 21.94 1.69L21.94 1.69Q21.97 1.57 22.00 1.35Q22.04 1.13 22.05 1.06L22.05 1.06Q21.97 1.06 21.76 1.04Q21.55 1.02 21.45 1.05L21.45 1.05Q21.31 1.08 21.16 1.12Q21.01 1.16 20.89 1.19L20.89 1.19Q20.69 1.55 20.61 1.98Q20.52 2.41 20.43 2.79L20.43 2.79Q20.37 3.01 20.31 3.25Q20.26 3.49 20.19 3.72L20.19 3.72Q19.81 3.72 19.45 3.76Q19.08 3.79 18.98 3.91L18.98 3.91Q18.89 4.27 18.84 4.52Q18.80 4.77 18.91 4.93L18.91 4.93Q19.04 4.93 19.29 4.93L19.29 4.93Q19.56 4.93 19.89 4.91L19.89 4.91Q19.77 5.45 19.64 5.92L19.64 5.92Q19.50 6.47 19.39 6.90Q19.28 7.34 19.27 7.71Q19.26 8.08 19.41 8.42Q19.56 8.76 19.94 9.14L19.94 9.14Q20.16 9.37 20.39 9.43Q20.62 9.49 21 9.51L21 9.51Q21.27 9.51 21.48 9.50Q21.69 9.49 21.87 9.42Q22.05 9.34 22.24 9.16Q22.43 8.99 22.67 8.65L22.67 8.65Q22.67 8.58 22.62 8.47Q22.57 8.36 22.46 8.26Q22.36 8.16 22.20 8.13Q22.05 8.11 21.84 8.20L21.84 8.20Q21.60 8.41 21.35 8.39Q21.10 8.36 20.96 8.27L20.96 8.27Q20.65 8.08 20.55 7.84Q20.45 7.60 20.55 7.22L20.55 7.22Q20.71 6.59 20.83 6.03Q20.96 5.47 21.10 4.90L21.10 4.90Q21.77 4.89 22.33 4.87Q22.89 4.84 23.04 4.80ZM28.56 8.95L28.56 8.95Q28.64 8.89 28.78 8.79Q28.92 8.68 28.97 8.60L28.97 8.60Q28.95 8.57 28.90 8.42Q28.84 8.27 28.77 8.11Q28.70 7.95 28.63 7.83Q28.56 7.70 28.52 7.71L28.52 7.71Q28.14 8.04 27.89 8.23Q27.64 8.41 27.43 8.52Q27.22 8.62 27.03 8.67Q26.85 8.71 26.63 8.74L26.63 8.74Q26.35 8.74 26.03 8.69Q25.70 8.64 25.43 8.51Q25.16 8.39 24.98 8.16Q24.81 7.94 24.84 7.57L24.84 7.57Q24.84 7.41 24.91 7.27L24.91 7.27L25.00 7.21Q25.56 7.20 26.12 7.18Q26.67 7.15 27.26 7.10L27.26 7.10Q27.36 7.08 27.60 7.06Q27.85 7.04 28.11 7.00Q28.36 6.96 28.59 6.88Q28.81 6.80 28.88 6.69L28.88 6.69Q28.95 6.55 29.02 6.41Q29.09 6.27 29.16 6.12L29.16 6.12Q29.23 5.98 29.25 5.81Q29.26 5.64 29.29 5.50L29.29 5.50Q29.37 4.96 29.18 4.49L29.18 4.49Q28.94 3.92 28.43 3.70Q27.92 3.49 27.31 3.55Q26.70 3.61 26.06 3.93Q25.42 4.24 24.95 4.72L24.95 4.72Q24.46 5.19 24.14 5.74Q23.81 6.29 23.69 6.90L23.69 6.90Q23.45 8.04 23.79 8.72Q24.12 9.41 24.80 9.68Q25.48 9.95 26.38 9.84Q27.27 9.72 28.15 9.24L28.15 9.24Q28.22 9.20 28.36 9.10Q28.49 9.00 28.56 8.95ZM28.07 6.12L28.07 6.12Q28.03 6.13 27.81 6.15Q27.59 6.17 27.29 6.19Q26.99 6.20 26.66 6.22Q26.32 6.24 26.03 6.26Q25.73 6.27 25.53 6.28Q25.33 6.29 25.31 6.27L25.31 6.27Q25.20 6.24 25.16 6.16L25.16 6.16Q25.33 5.61 25.77 5.21Q26.21 4.80 26.70 4.61Q27.19 4.42 27.62 4.51Q28.06 4.59 28.22 5.04L28.22 5.04Q28.29 5.19 28.29 5.45L28.29 5.45Q28.29 5.68 28.22 5.87L28.22 5.87Q28.21 5.94 28.18 6.01Q28.14 6.08 28.07 6.12ZM35.07 5.61L35.07 5.61Q35.10 5.60 35.14 5.45Q35.18 5.31 35.22 5.12Q35.25 4.94 35.26 4.77Q35.27 4.61 35.22 4.55L35.22 4.55Q35 4.52 34.71 4.52Q34.43 4.51 34.12 4.52Q33.81 4.54 33.51 4.55Q33.21 4.56 32.97 4.56L32.97 4.56Q32.84 4.56 32.55 4.56L32.55 4.56Q32.26 4.56 31.93 4.57Q31.61 4.58 31.34 4.62Q31.07 4.66 30.98 4.76L30.98 4.76Q30.88 5.12 30.86 5.38Q30.83 5.63 30.94 5.78L30.94 5.78Q31.09 5.78 31.42 5.78Q31.75 5.77 32.18 5.76Q32.61 5.75 33.07 5.74Q33.53 5.73 33.94 5.71Q34.34 5.70 34.65 5.67Q34.96 5.64 35.07 5.61ZM42.88-0.15L42.88-0.15Q41.64-0.14 40.48-0.04Q39.33 0.06 38.07 0.28L38.07 0.28Q38.07 0.36 38.01 0.66Q37.95 0.95 37.86 1.35Q37.76 1.75 37.64 2.21Q37.52 2.67 37.41 3.08Q37.30 3.49 37.22 3.79Q37.14 4.09 37.13 4.19L37.13 4.19Q37.06 4.58 36.91 5.11Q36.76 5.64 36.62 6.19Q36.47 6.73 36.37 7.24Q36.27 7.74 36.29 8.08L36.29 8.08Q36.29 8.23 36.25 8.40Q36.20 8.57 36.20 8.72L36.20 8.72Q36.18 8.88 36.20 9.00Q36.23 9.11 36.20 9.27L36.20 9.27Q36.30 9.39 36.46 9.44Q36.61 9.49 36.79 9.49L36.79 9.49Q36.96 9.49 37.34 9.47Q37.72 9.45 38.18 9.42Q38.64 9.38 39.15 9.32Q39.66 9.27 40.12 9.21Q40.57 9.16 40.91 9.10Q41.24 9.04 41.37 8.99L41.37 8.99Q41.54 8.81 41.56 8.69Q41.58 8.58 41.61 8.40L41.61 8.40Q41.61 8.25 41.58 8.19Q41.55 8.13 41.58 8.02L41.58 8.02Q41.48 7.90 41.20 7.85Q40.92 7.81 40.56 7.81L40.56 7.81Q40.19 7.81 39.77 7.85Q39.34 7.90 38.94 7.95Q38.54 7.99 38.21 8.04Q37.87 8.09 37.69 8.11L37.69 8.11Q37.73 7.90 37.80 7.53Q37.87 7.15 37.95 6.76Q38.02 6.36 38.09 5.99Q38.15 5.61 38.18 5.40L38.18 5.40L38.84 5.36Q38.93 5.26 39.35 5.22Q39.77 5.18 40.26 5.17Q40.75 5.15 41.20 5.14Q41.65 5.12 41.83 5.10L41.83 5.10Q41.89 5.03 41.94 4.88Q42 4.73 42.02 4.58Q42.04 4.42 42.04 4.28L42.04 4.28Q42.04 4.13 42 4.06L42 4.06Q41.90 3.98 41.63 3.96Q41.36 3.95 41.01 3.97Q40.66 3.99 40.26 4.03Q39.87 4.07 39.52 4.10Q39.17 4.13 38.93 4.12Q38.68 4.10 38.61 4.02L38.61 4.02Q38.65 3.82 38.74 3.47Q38.82 3.11 38.92 2.72Q39.02 2.34 39.13 2.00Q39.24 1.67 39.33 1.50L39.33 1.50Q39.77 1.41 40.21 1.41Q40.64 1.40 41.09 1.36L41.09 1.36Q41.44 1.32 41.78 1.29Q42.13 1.26 42.48 1.22L42.48 1.22Q42.50 1.19 42.64 1.18Q42.77 1.18 42.92 1.18L42.92 1.18Q43.08 1.18 43.20 1.18L43.20 1.18Q43.34 1.18 43.37 1.16L43.37 1.16Q43.48 1.09 43.53 1.02Q43.57 0.94 43.58 0.86Q43.60 0.78 43.60 0.71L43.60 0.71Q43.60 0.63 43.62 0.55L43.62 0.55Q43.65 0.42 43.67 0.29Q43.68 0.17 43.71 0.03L43.71 0.03Q43.65 0.01 43.54-0.02Q43.43-0.06 43.30-0.08Q43.18-0.11 43.06-0.13Q42.94-0.15 42.88-0.15ZM47.92 4.28L47.92 4.28Q47.64 3.68 47.08 3.50Q46.51 3.32 45.86 3.47Q45.22 3.63 44.60 4.07Q43.97 4.52 43.58 5.18L43.58 5.18Q43.60 5.18 43.66 5.25Q43.72 5.32 43.80 5.40Q43.88 5.47 43.94 5.54Q44.00 5.60 44.03 5.60L44.03 5.60Q44.25 5.39 44.48 5.19Q44.70 4.98 44.97 4.83L44.97 4.83Q45.21 4.69 45.51 4.61Q45.82 4.52 46.10 4.53Q46.38 4.54 46.59 4.67Q46.79 4.80 46.82 5.11L46.82 5.11Q46.83 5.33 46.77 5.57Q46.72 5.81 46.69 6.03L46.69 6.03Q46.35 6.09 46.00 6.09L46.00 6.09Q45.67 6.09 45.33 6.15Q45.00 6.20 44.59 6.34Q44.18 6.47 43.81 6.68Q43.43 6.89 43.15 7.18Q42.87 7.48 42.78 7.85L42.78 7.85L42.74 8.05Q42.77 8.05 42.73 8.09L42.73 8.09Q42.62 8.71 42.98 9.09L42.98 9.09Q43.27 9.41 43.69 9.49Q44.10 9.58 44.55 9.58L44.55 9.58Q44.55 9.56 44.58 9.56L44.58 9.56Q44.77 9.56 44.98 9.52Q45.18 9.48 45.37 9.44L45.37 9.44Q45.54 9.39 45.64 9.37Q45.74 9.34 45.81 9.31Q45.89 9.28 45.95 9.26Q46.02 9.24 46.10 9.21L46.10 9.21Q46.09 9.38 46.19 9.46Q46.30 9.53 46.34 9.69L46.34 9.69Q46.54 9.69 46.73 9.65Q46.93 9.62 47.12 9.60L47.12 9.60Q47.15 9.41 47.25 9.03Q47.35 8.65 47.42 8.36L47.42 8.36L47.45 8.34Q47.54 7.92 47.70 7.37Q47.85 6.82 47.96 6.25Q48.06 5.68 48.08 5.17Q48.09 4.65 47.92 4.28ZM46.56 6.99L46.56 6.99Q46.52 7.22 46.45 7.52Q46.38 7.81 46.30 8.05L46.30 8.05Q46.26 8.16 45.91 8.26Q45.56 8.36 45.14 8.39Q44.73 8.41 44.38 8.35Q44.03 8.29 44.00 8.09L44.00 8.09Q44.00 8.02 44.01 7.97Q44.02 7.92 44.03 7.85L44.03 7.85Q44.10 7.66 44.33 7.49Q44.56 7.32 44.74 7.25L44.74 7.25Q44.79 7.22 44.83 7.22Q44.87 7.21 44.90 7.20L44.90 7.20Q45.29 7.07 45.57 7.00Q45.85 6.93 46.23 6.93L46.23 6.93Q46.30 6.96 46.41 6.95Q46.52 6.94 46.56 6.99ZM53.20 4.80L53.20 4.80Q53.23 4.79 53.28 4.64Q53.33 4.49 53.36 4.31Q53.40 4.13 53.42 3.96Q53.44 3.79 53.40 3.74L53.40 3.74Q53.03 3.68 52.51 3.68L52.51 3.68Q52.00 3.68 51.55 3.71L51.55 3.71Q51.60 3.51 51.65 3.33Q51.70 3.14 51.76 2.94L51.76 2.94Q51.86 2.58 51.92 2.30Q51.98 2.02 52.09 1.69L52.09 1.69Q52.12 1.57 52.16 1.35Q52.19 1.13 52.21 1.06L52.21 1.06Q52.12 1.06 51.91 1.04Q51.70 1.02 51.60 1.05L51.60 1.05Q51.46 1.08 51.32 1.12Q51.17 1.16 51.04 1.19L51.04 1.19Q50.85 1.55 50.76 1.98Q50.68 2.41 50.58 2.79L50.58 2.79Q50.53 3.01 50.47 3.25Q50.41 3.49 50.34 3.72L50.34 3.72Q49.97 3.72 49.60 3.76Q49.24 3.79 49.14 3.91L49.14 3.91Q49.04 4.27 49 4.52Q48.96 4.77 49.07 4.93L49.07 4.93Q49.20 4.93 49.45 4.93L49.45 4.93Q49.71 4.93 50.05 4.91L50.05 4.91Q49.92 5.45 49.80 5.92L49.80 5.92Q49.66 6.47 49.55 6.90Q49.43 7.34 49.43 7.71Q49.42 8.08 49.57 8.42Q49.71 8.76 50.09 9.14L50.09 9.14Q50.32 9.37 50.55 9.43Q50.78 9.49 51.16 9.51L51.16 9.51Q51.42 9.51 51.63 9.50Q51.84 9.49 52.02 9.42Q52.21 9.34 52.40 9.16Q52.58 8.99 52.82 8.65L52.82 8.65Q52.82 8.58 52.77 8.47Q52.72 8.36 52.62 8.26Q52.51 8.16 52.36 8.13Q52.21 8.11 52.00 8.20L52.00 8.20Q51.76 8.41 51.51 8.39Q51.25 8.36 51.11 8.27L51.11 8.27Q50.81 8.08 50.71 7.84Q50.61 7.60 50.71 7.22L50.71 7.22Q50.86 6.59 50.99 6.03Q51.11 5.47 51.25 4.90L51.25 4.90Q51.93 4.89 52.49 4.87Q53.05 4.84 53.20 4.80ZM58.51 6.80L58.51 6.80Q58.39 6.71 58.19 6.61Q57.99 6.51 57.72 6.42Q57.46 6.33 57.15 6.27Q56.84 6.20 56.53 6.16L56.53 6.16Q56.41 6.15 56.27 6.09Q56.14 6.03 56.03 5.95Q55.92 5.87 55.85 5.75Q55.79 5.63 55.80 5.49L55.80 5.49L55.82 5.46Q56.04 5.14 56.36 4.96Q56.67 4.77 57.02 4.69Q57.37 4.61 57.73 4.60Q58.09 4.59 58.38 4.62L58.38 4.62Q58.53 4.63 58.67 4.66Q58.81 4.69 58.95 4.68L58.95 4.68Q58.98 4.68 59.01 4.61Q59.04 4.54 59.06 4.46Q59.08 4.38 59.11 4.31Q59.14 4.24 59.18 4.21L59.18 4.21Q59.23 4.06 59.33 3.96Q59.43 3.85 59.40 3.70L59.40 3.70Q59.35 3.65 59.23 3.61Q59.12 3.57 59.05 3.54L59.05 3.54Q58.74 3.44 58.32 3.44Q57.90 3.43 57.44 3.52Q56.97 3.61 56.50 3.78Q56.03 3.95 55.64 4.20Q55.24 4.45 54.96 4.78Q54.68 5.11 54.60 5.52L54.60 5.52Q54.50 5.94 54.59 6.20Q54.67 6.47 54.87 6.64Q55.06 6.82 55.34 6.92Q55.61 7.01 55.91 7.08Q56.21 7.15 56.50 7.22Q56.80 7.29 57.04 7.41L57.04 7.41Q57.15 7.46 57.28 7.57Q57.41 7.69 57.39 7.85L57.39 7.85Q57.32 8.23 56.76 8.46Q56.20 8.69 55.33 8.67L55.33 8.67Q55.19 8.67 55.03 8.61Q54.87 8.55 54.70 8.46Q54.54 8.37 54.42 8.26Q54.29 8.15 54.21 8.05L54.21 8.05L54.04 7.88Q53.76 8.11 53.61 8.48Q53.47 8.85 53.34 9.11L53.34 9.11Q53.70 9.35 54.10 9.51Q54.50 9.67 54.99 9.70L54.99 9.70Q55.30 9.72 55.70 9.67Q56.10 9.63 56.51 9.54Q56.92 9.45 57.32 9.28Q57.72 9.11 58.04 8.88Q58.35 8.64 58.55 8.31Q58.74 7.98 58.74 7.56L58.74 7.56Q58.74 7.29 58.72 7.13Q58.70 6.97 58.51 6.80Z"></path></g><defs data-v-fde0c5aa=""><linearGradient data-v-fde0c5aa="" gradientTransform="rotate(25)" id="11b96409-87a0-4e3a-8f77-d6fdcaf98ed2" x1="0%" y1="0%" x2="100%" y2="0%"><stop data-v-fde0c5aa="" offset="0%" stop-color="#6A4F4C" stop-opacity="1"></stop><stop data-v-fde0c5aa="" offset="100%" stop-color="#A0A29B" stop-opacity="1"></stop></linearGradient></defs><g data-v-fde0c5aa="" id="37fa5cfc-260e-4da9-9061-ab6be14748f8" stroke="none" fill="url(#11b96409-87a0-4e3a-8f77-d6fdcaf98ed2)" transform="matrix(0.4292144878286759,0,0,0.4292144878286759,40,128.5393198162962)"><path d="M0 66.828v4.428C1.098 78.679 25.121 100 30.618 100h38.647c5.496 0 29.52-21.321 30.617-28.745v-4.428H0zM71.614 43.042c.178-.138 4.363-3.416 4.585-7.457a1.25 1.25 0 00-2.496-.138c-.159 2.894-3.585 5.59-3.619 5.617.068-.054.142-.099.221-.137l-.22.136a1.25 1.25 0 001.529 1.979zM73.628 59.742c-1.531-.398-4.713-.451-5.791 2.199a1.25 1.25 0 002.317.941c.522-1.285 2.822-.727 2.846-.721a1.25 1.25 0 10.628-2.419zM97.637 54.542c-4.474 2.049-9.854 7.622-7.916 8.641 1.937 1.019 4.706-.634 7.666-2.979 2.96-2.346 3.582-7.19.25-5.662zM61.918 38.932c-1.984.083-4.756.5-5.922 3.162l-.179.4c-.428.95-.87 1.933-.446 2.971.418 1.026 1.509 1.563 2.412 1.917 2.985 1.168 6.558.515 8.132-1.489.867-1.103.915-2.818.121-4.369-.854-1.67-2.432-2.662-4.118-2.592zm2.032 5.415c-.785 1-3.138 1.535-5.257.706-.858-.336-1.015-.549-1.021-.558.013.018.026.06.026.082-.004-.166.229-.681.397-1.057l.189-.424c.333-.76 1.038-1.554 3.735-1.666 1.052-.044 1.635.932 1.789 1.232.364.706.357 1.411.142 1.685zM45.879 40.212c-2.1-.233-3.716 1.188-5.191 2.664-.718.718-1.805 1.804-1.741 3.219.043.942.568 1.821 1.605 2.685l.433.365c1.905 1.614 3.228 2.514 6.265.742 2.726-1.59 2.892-2.827 2.829-4.401a12.458 12.458 0 01-.014-.52c0-2.211-2.61-4.578-4.186-4.754zm1.686 4.754c0 .227.008.436.016.62.038.935.048 1.186-1.59 2.142-1.665.971-1.828.833-3.389-.49l-.448-.378c-.513-.427-.702-.74-.708-.877-.014-.313.731-1.058 1.011-1.338 1.275-1.276 2.247-2.047 3.148-1.947a.112.112 0 01-.02-.003c.544.119 1.98 1.457 1.98 2.271zM56.561 53.749c-2.514-1.143-8.519-3.468-9.985-.387-.312.652-.946 1.363-1.505 1.991-.972 1.09-1.891 2.119-1.584 3.334.178.704.714 1.224 1.596 1.544 2.937 1.067 6.611 2.107 8.979.66 1.943-1.187 2.591-3.593 2.939-4.885.06-.222.134-.497.168-.579.264-.623.008-1.398-.608-1.678zm-3.802 5.009c-1.567.957-5.169-.279-6.616-.802.218-.291.543-.66.793-.939.667-.748 1.421-1.596 1.887-2.563.468-.384 2.977.054 5.699 1.143-.284 1.033-.751 2.543-1.763 3.161zm40.517-12.027c-.113-2.714-.481-3.339-1.594-4.566l-.152-.169c-.955-1.061-2.239-1.506-3.617-1.254-2.114.387-3.903 2.264-4.513 3.833-.162.416-.369.821-.569 1.212-.708 1.388-1.59 3.115-.028 5.157 2.014 2.633 4.144 2.804 7.122.571.692-.52 1.203-.82 1.614-1.062 1.553-.915 1.829-1.507 1.737-3.722zM53.9 29.78c-1.739-.263-5.884-.635-6.811 1.589-.745 1.788-.512 5.102-.483 5.473a1.25 1.25 0 001.068 1.14c.56.081 5.534.75 7.9-.432 1.425-.713 2.113-2.375 1.756-4.234-.38-1.975-1.791-3.4-3.43-3.536zM12.602 38.844l.034-.005c-.534-3.589-.841-5.708-1.377-8.776C8.242 12.813 5.494-.235 3.57.003c-.01 0-.018 0-.023.003l-.015.001-.015.003-.023.004C1.574.28 3.063 15.05 5.883 32c.511 3.074.816 4.243 1.438 7.875 0 0-5.53 4.177-4.374 9.492.861 3.958 5.42 14.332 5.897 14.928-1.103-6.002-1.398-13.729.102-13.729 1-.25 3.438 8 4.875 13.063 0 0-.313-13.813.875-13.875 1.517-.08 2.989 7.23 3.477 13.313.307-.7 2.024-11.899 1.832-15.946-.26-5.433-7.403-8.277-7.403-8.277z"></path><path d="M83.373 56.922c-.315-.737-1.683-2.813-6.615-1.704.046-1.517-.463-2.974-1.506-4.083-1.335-1.42-3.201-1.956-4.87-1.399-1.011.337-2.653 1.342-3.415 4.284-1.672-.634-3.307-.628-4.577.064-1.169.638-1.877 1.803-1.895 3.115-.025 1.972 1.443 3.963 4.03 5.462a1.248 1.248 0 001.708-.454 1.248 1.248 0 00-.454-1.708c-2.068-1.199-2.794-2.474-2.784-3.267.007-.525.325-.808.592-.953.672-.366 1.982-.387 3.646.654.364.229.82.253 1.207.065.388-.187.651-.56.698-.987.236-2.129.978-3.553 2.034-3.904.723-.241 1.608.049 2.258.739.887.944 1.092 2.311.549 3.656a1.248 1.248 0 001.559 1.652c3.688-1.245 5.347-.692 5.537-.249.213.496-.568 2.099-3.336 3.555a1.25 1.25 0 101.164 2.212c3.594-1.889 5.39-4.603 4.47-6.75zm-46.892-.776c1.012-1.692 1.121-3.712.675-5.244-.505-1.736-1.662-2.902-3.094-3.118-.93-.14-2.246.08-3.703 1.567-.794-1.249-1.797-2.044-2.898-2.234-1.053-.182-2.059.205-2.759 1.062-1.244 1.521-1.286 4.226-.113 7.235a1.25 1.25 0 002.329-.908c-1.06-2.719-.675-4.262-.28-4.745.156-.191.283-.199.397-.18.394.068 1.234.674 1.892 2.514a1.252 1.252 0 002.221.266c1.1-1.668 2.034-2.181 2.542-2.104.429.064.848.592 1.066 1.344.363 1.246.153 3.005-1.133 4.123a1.252 1.252 0 00.421 2.128c2.981 1.008 3.832 2.374 3.676 3.047-.163.704-1.434 1.311-3.469 1.048a1.25 1.25 0 10-.32 2.478c3.716.48 5.804-1.142 6.226-2.963.374-1.628-.459-3.767-3.676-5.316z"></path><path d="M32.489 58.288c-.138-.196-1.4-1.92-3.115-2.129-.814-.1-1.591.147-2.246.715a1.25 1.25 0 001.636 1.891c.163-.141.249-.131.306-.124.424.05 1.074.667 1.38 1.093l-.003-.004a1.251 1.251 0 002.042-1.442z"></path></g><!----></svg>